External Loads File
version=1
nRows=46
nColumns=13
Range=5.000000e-03-10 seconds
endheader
time 	forceRightX 	forceRightY 	forceRightZ 	pointRightX 	pointRightY 	pointRightZ 	forceLeftX 	forceLeftY 	forceLeftZ 	pointLeftX 	pointLeftY 	pointLeftZ 		
7.505000 85.926774 335.599140 -0.000000 0.280959 0.148041 -0.136617 20.867112 -110.204298 -0.000000 0.285555 0.496531 -0.372803
7.510000 91.752571 321.654019 -0.000000 0.271367 0.147095 -0.136902 12.567753 -115.414544 -0.000000 0.295299 0.497395 -0.372372
7.515000 96.197982 307.024636 -0.000000 0.261686 0.146595 -0.136999 4.008927 -119.656698 -0.000000 0.305026 0.497519 -0.372259
7.520000 99.235912 291.979470 -0.000000 0.252294 0.146960 -0.137418 -4.766471 -122.842055 -0.000000 0.314745 0.496962 -0.372120
7.525000 101.273398 276.573359 -0.000000 0.242994 0.147925 -0.137763 -13.858078 -124.860617 -0.000000 0.324464 0.495788 -0.372051
7.530000 102.491886 260.862429 -0.000000 0.233846 0.149516 -0.138094 -23.252513 -125.572313 -0.000000 0.334157 0.493844 -0.371722
7.535000 102.837080 244.921257 -0.000000 0.224874 0.151652 -0.138420 -32.793661 -124.847081 -0.000000 0.343576 0.491224 -0.371643
7.540000 102.213256 228.781501 -0.000000 0.216317 0.154359 -0.138647 -42.258201 -122.592333 -0.000000 0.352814 0.488365 -0.371447
7.545000 100.658675 212.400878 -0.000000 0.208291 0.157547 -0.138872 -51.479925 -118.748164 -0.000000 0.361905 0.484779 -0.371446
7.550000 97.879793 195.942766 -0.000000 0.200779 0.161120 -0.139127 -60.141051 -113.407329 -0.000000 0.370579 0.480731 -0.371230
7.555000 93.802549 179.570825 -0.000000 0.193716 0.164869 -0.139362 -68.075984 -106.725891 -0.000000 0.378935 0.476293 -0.371060
7.560000 88.322012 163.554912 -0.000000 0.187068 0.168909 -0.139624 -75.118763 -98.962654 -0.000000 0.386802 0.471573 -0.370886
7.565000 81.460083 148.151636 -0.000000 0.180977 0.173232 -0.139836 -81.189998 -90.393730 -0.000000 0.394285 0.466582 -0.370742
7.570000 73.232531 133.651781 -0.000000 0.175552 0.177621 -0.140059 -86.215620 -81.350573 -0.000000 0.401321 0.461389 -0.370438
7.575000 63.966922 120.206927 -0.000000 0.170474 0.182146 -0.140292 -90.305240 -72.028111 -0.000000 0.407852 0.456053 -0.370225
7.580000 53.948934 108.002262 -0.000000 0.165978 0.186745 -0.140396 -93.526248 -62.663618 -0.000000 0.413981 0.450561 -0.370007
7.585000 43.531618 97.142255 -0.000000 0.161887 0.191362 -0.140515 -95.987203 -53.445655 -0.000000 0.419524 0.445022 -0.369763
7.590000 33.129781 87.631178 -0.000000 0.158207 0.196077 -0.140599 -97.858509 -44.441172 -0.000000 0.424593 0.439406 -0.369615
7.595000 23.063206 79.468467 -0.000000 0.154843 0.200914 -0.140656 -99.286886 -35.699019 -0.000000 0.429158 0.433734 -0.369499
7.600000 13.543110 72.670183 -0.000000 0.151780 0.205698 -0.140722 -100.375984 -27.278018 -0.000000 0.433286 0.428056 -0.369428
7.605000 4.809096 67.249109 -0.000000 0.148944 0.210775 -0.140884 -101.239629 -19.075174 -0.000000 0.436914 0.422262 -0.369308
7.610000 -3.127620 63.250566 -0.000000 0.146506 0.215715 -0.140842 -101.931360 -11.219229 -0.000000 0.440168 0.416513 -0.369212
7.615000 -10.064551 60.702193 -0.000000 0.144155 0.220809 -0.140912 -102.559271 -3.497477 -0.000000 0.443041 0.410462 -0.369201
7.620000 -16.018838 59.597124 -0.000000 0.142016 0.226066 -0.141055 -103.166229 3.982589 -0.000000 0.445451 0.404531 -0.369234
7.625000 -20.925580 59.873860 -0.000000 0.140104 0.231448 -0.141113 -103.802635 11.276852 -0.000000 0.447647 0.398712 -0.369028
7.630000 -24.717938 61.436147 -0.000000 0.138322 0.236987 -0.141144 -104.505795 18.488881 -0.000000 0.449326 0.392694 -0.369127
7.635000 -27.378163 64.146197 -0.000000 0.136739 0.242682 -0.141262 -105.310208 25.682436 -0.000000 0.450790 0.386605 -0.369164
7.640000 -28.937157 67.830017 -0.000000 0.135299 0.248421 -0.141331 -106.256759 32.903888 -0.000000 0.451934 0.380409 -0.369187
7.645000 -29.401307 72.319051 -0.000000 0.134012 0.254342 -0.141421 -107.375720 40.275385 -0.000000 0.452821 0.374117 -0.369248
7.650000 -28.823770 77.420275 -0.000000 0.132886 0.260370 -0.141482 -108.738024 47.841143 -0.000000 0.453442 0.367788 -0.369325
7.655000 -27.257767 82.945363 -0.000000 0.131984 0.266431 -0.141580 -110.409155 55.668500 -0.000000 0.453847 0.361406 -0.369314
7.660000 -24.711785 88.749300 -0.000000 0.131244 0.272774 -0.141632 -112.356787 63.922262 -0.000000 0.454054 0.354946 -0.369035
7.665000 -21.311311 94.699136 -0.000000 0.130528 0.279238 -0.141593 -114.557365 72.610141 -0.000000 0.454041 0.348363 -0.369244
7.670000 -17.259056 100.698580 -0.000000 0.130210 0.285724 -0.141668 -117.026660 81.624261 -0.000000 0.453902 0.341820 -0.369329
7.675000 -12.629078 106.697691 -0.000000 0.129973 0.292200 -0.141713 -119.665555 91.005478 -0.000000 0.453628 0.335181 -0.369350
7.680000 -7.549735 112.609301 -0.000000 0.130024 0.298780 -0.141819 -122.369939 100.744312 -0.000000 0.453045 0.328483 -0.369740
7.685000 -2.254403 118.301962 -0.000000 0.130355 0.305359 -0.141910 -125.069386 110.734197 -0.000000 0.452466 0.321849 -0.370077
7.690000 3.106472 123.619109 -0.000000 0.130984 0.311999 -0.142012 -127.560603 120.952555 -0.000000 0.451563 0.315224 -0.370013
7.695000 8.208518 128.396903 -0.000000 0.131765 0.318514 -0.142065 -129.769537 131.157049 -0.000000 0.450376 0.308819 -0.369523
7.700000 13.039360 132.489400 -0.000000 0.132715 0.325062 -0.142008 -131.315363 141.358924 -0.000000 0.448967 0.302411 -0.369490
7.705000 17.310731 135.829910 -0.000000 0.133977 0.331412 -0.141924 -132.150535 151.215125 -0.000000 0.447307 0.296128 -0.369512
7.710000 21.027370 138.394776 -0.000000 0.135492 0.337751 -0.141952 -132.022200 160.623387 -0.000000 0.445471 0.289840 -0.369232
7.715000 23.967204 140.243736 -0.000000 0.137238 0.343922 -0.141908 -131.080024 169.250169 -0.000000 0.443379 0.283718 -0.369149
7.720000 26.163596 141.440703 -0.000000 0.139189 0.349997 -0.141811 -129.333692 177.026569 -0.000000 0.441123 0.277687 -0.369120
7.725000 27.671834 142.076206 -0.000000 0.141395 0.355987 -0.141769 -126.866940 183.941070 -0.000000 0.438648 0.271742 -0.369174
7.730000 28.537830 142.272740 -0.000000 0.143894 0.361830 -0.141590 -123.850044 190.024779 -0.000000 0.435972 0.265903 -0.369297
